<mxfile modified="2024-04-01T15:29:03.925Z" host="app.diagrams.net" agent="Mozilla/5.0 (Windows NT 10.0; Win64; x64) AppleWebKit/537.36 (KHTML, like Gecko) Chrome/123.0.0.0 Safari/537.36" etag="2MJ4BcKD5Cou9nQwhOkw" version="24.2.1" type="github">
  <diagram id="Ht1M8jgEwFfnCIfOTk4-" name="Page-1">
    <mxGraphModel dx="2867" dy="1973" grid="1" gridSize="10" guides="1" tooltips="1" connect="1" arrows="1" fold="1" page="1" pageScale="1" pageWidth="827" pageHeight="1169" math="0" shadow="0">
      <root>
        <mxCell id="0" />
        <mxCell id="1" parent="0" />
        <mxCell id="ylPRggPQVk4RAqtWnenC-86" value="" style="rounded=1;whiteSpace=wrap;html=1;dashed=1;strokeWidth=1;" parent="1" vertex="1">
          <mxGeometry x="-130" y="190" width="293" height="610" as="geometry" />
        </mxCell>
        <mxCell id="jZVaUwOg5UY3L9NAnvdq-71" value="&lt;font style=&quot;font-size: 14px;&quot; face=&quot;Times New Roman&quot;&gt;AWS Cloud&lt;/font&gt;" style="points=[[0,0],[0.25,0],[0.5,0],[0.75,0],[1,0],[1,0.25],[1,0.5],[1,0.75],[1,1],[0.75,1],[0.5,1],[0.25,1],[0,1],[0,0.75],[0,0.5],[0,0.25]];outlineConnect=0;gradientColor=none;html=1;whiteSpace=wrap;fontSize=12;fontStyle=0;shape=mxgraph.aws4.group;grIcon=mxgraph.aws4.group_aws_cloud_alt;strokeColor=#232F3E;fillColor=none;verticalAlign=top;align=left;spacingLeft=30;fontColor=#232F3E;labelBackgroundColor=none;container=1;pointerEvents=0;collapsible=0;recursiveResize=0;strokeWidth=1;" parent="1" vertex="1">
          <mxGeometry x="263" y="125" width="1387" height="715" as="geometry" />
        </mxCell>
        <mxCell id="IMjDMDMF1OcJiBSf5i2Z-30" value="" style="rounded=1;whiteSpace=wrap;html=1;dashed=1;" parent="jZVaUwOg5UY3L9NAnvdq-71" vertex="1">
          <mxGeometry x="123.44" y="69" width="293" height="610" as="geometry" />
        </mxCell>
        <mxCell id="ylPRggPQVk4RAqtWnenC-111" value="" style="rounded=1;whiteSpace=wrap;html=1;dashed=1;" parent="jZVaUwOg5UY3L9NAnvdq-71" vertex="1">
          <mxGeometry x="490" y="70" width="370" height="610" as="geometry" />
        </mxCell>
        <mxCell id="ylPRggPQVk4RAqtWnenC-83" value="&lt;font style=&quot;font-size: 14px;&quot; face=&quot;Times New Roman&quot;&gt;EKS&lt;/font&gt;" style="sketch=0;points=[[0,0,0],[0.25,0,0],[0.5,0,0],[0.75,0,0],[1,0,0],[0,1,0],[0.25,1,0],[0.5,1,0],[0.75,1,0],[1,1,0],[0,0.25,0],[0,0.5,0],[0,0.75,0],[1,0.25,0],[1,0.5,0],[1,0.75,0]];outlineConnect=0;fontColor=#232F3E;fillColor=#ED7100;strokeColor=#ffffff;dashed=0;verticalLabelPosition=bottom;verticalAlign=top;align=center;html=1;fontSize=12;fontStyle=0;aspect=fixed;shape=mxgraph.aws4.resourceIcon;resIcon=mxgraph.aws4.eks_anywhere;" parent="jZVaUwOg5UY3L9NAnvdq-71" vertex="1">
          <mxGeometry x="1330" width="57" height="57" as="geometry" />
        </mxCell>
        <mxCell id="ylPRggPQVk4RAqtWnenC-136" style="edgeStyle=orthogonalEdgeStyle;rounded=0;orthogonalLoop=1;jettySize=auto;html=1;startArrow=block;startFill=1;" parent="jZVaUwOg5UY3L9NAnvdq-71" source="ylPRggPQVk4RAqtWnenC-103" edge="1">
          <mxGeometry relative="1" as="geometry">
            <mxPoint x="497" y="393" as="targetPoint" />
          </mxGeometry>
        </mxCell>
        <mxCell id="ylPRggPQVk4RAqtWnenC-103" value="" style="shape=image;verticalLabelPosition=bottom;labelBackgroundColor=default;verticalAlign=top;aspect=fixed;imageAspect=0;image=https://files.readme.io/90e8647-KeyCloak-1.png;rotation=-90;" parent="jZVaUwOg5UY3L9NAnvdq-71" vertex="1">
          <mxGeometry x="29.939999999999998" y="319" width="503.56" height="145" as="geometry" />
        </mxCell>
        <mxCell id="ylPRggPQVk4RAqtWnenC-109" value="&lt;font style=&quot;font-size: 18px;&quot; face=&quot;Times New Roman&quot;&gt;Authentication/Authorization&lt;/font&gt;" style="text;html=1;align=center;verticalAlign=middle;whiteSpace=wrap;rounded=0;" parent="jZVaUwOg5UY3L9NAnvdq-71" vertex="1">
          <mxGeometry x="239.94" y="94" width="60" height="30" as="geometry" />
        </mxCell>
        <mxCell id="ylPRggPQVk4RAqtWnenC-112" value="&lt;font style=&quot;font-size: 18px;&quot; face=&quot;Times New Roman&quot;&gt;BackEnd Services&lt;/font&gt;" style="text;html=1;align=center;verticalAlign=middle;whiteSpace=wrap;rounded=0;" parent="jZVaUwOg5UY3L9NAnvdq-71" vertex="1">
          <mxGeometry x="587" y="74" width="223" height="30" as="geometry" />
        </mxCell>
        <mxCell id="ylPRggPQVk4RAqtWnenC-115" value="User-Access-Api" style="shape=image;verticalLabelPosition=bottom;labelBackgroundColor=default;verticalAlign=top;aspect=fixed;imageAspect=0;image=https://pbs.twimg.com/profile_images/1235868806079057921/fTL08u_H_400x400.png;fontFamily=Times New Roman;fontSize=14;" parent="jZVaUwOg5UY3L9NAnvdq-71" vertex="1">
          <mxGeometry x="533.5" y="125" width="100" height="100" as="geometry" />
        </mxCell>
        <mxCell id="ylPRggPQVk4RAqtWnenC-116" value="Pet-Details-Api" style="shape=image;verticalLabelPosition=bottom;labelBackgroundColor=default;verticalAlign=top;aspect=fixed;imageAspect=0;image=https://pbs.twimg.com/profile_images/1235868806079057921/fTL08u_H_400x400.png;fontFamily=Times New Roman;fontSize=14;" parent="jZVaUwOg5UY3L9NAnvdq-71" vertex="1">
          <mxGeometry x="533.5" y="285" width="100" height="100" as="geometry" />
        </mxCell>
        <mxCell id="ylPRggPQVk4RAqtWnenC-123" value="Pet-Diagnosis-Api" style="shape=image;verticalLabelPosition=bottom;labelBackgroundColor=default;verticalAlign=top;aspect=fixed;imageAspect=0;image=https://pbs.twimg.com/profile_images/1235868806079057921/fTL08u_H_400x400.png;fontFamily=Times New Roman;fontSize=14;" parent="jZVaUwOg5UY3L9NAnvdq-71" vertex="1">
          <mxGeometry x="533.5" y="455" width="100" height="100" as="geometry" />
        </mxCell>
        <mxCell id="IMjDMDMF1OcJiBSf5i2Z-39" style="edgeStyle=orthogonalEdgeStyle;rounded=0;orthogonalLoop=1;jettySize=auto;html=1;startArrow=block;startFill=1;" parent="jZVaUwOg5UY3L9NAnvdq-71" source="ylPRggPQVk4RAqtWnenC-118" target="IMjDMDMF1OcJiBSf5i2Z-33" edge="1">
          <mxGeometry relative="1" as="geometry" />
        </mxCell>
        <mxCell id="ylPRggPQVk4RAqtWnenC-118" value="Reporting-Api" style="shape=image;verticalLabelPosition=bottom;labelBackgroundColor=default;verticalAlign=top;aspect=fixed;imageAspect=0;image=https://pbs.twimg.com/profile_images/1235868806079057921/fTL08u_H_400x400.png;fontFamily=Times New Roman;fontSize=14;" parent="jZVaUwOg5UY3L9NAnvdq-71" vertex="1">
          <mxGeometry x="677" y="125" width="100" height="100" as="geometry" />
        </mxCell>
        <mxCell id="Qnpoebuc5BkSsdDRbeIA-15" value="" style="rounded=1;whiteSpace=wrap;html=1;dashed=1;" parent="jZVaUwOg5UY3L9NAnvdq-71" vertex="1">
          <mxGeometry x="1130.5" y="65" width="163" height="615" as="geometry" />
        </mxCell>
        <mxCell id="Qnpoebuc5BkSsdDRbeIA-16" value="&lt;font style=&quot;font-size: 18px;&quot; face=&quot;Times New Roman&quot;&gt;Databases&amp;nbsp;&lt;/font&gt;&lt;span style=&quot;font-size: 18px; font-family: &amp;quot;Times New Roman&amp;quot;; background-color: initial;&quot;&gt;&amp;amp;&amp;nbsp;&lt;/span&gt;&lt;div&gt;&lt;span style=&quot;font-size: 18px; font-family: &amp;quot;Times New Roman&amp;quot;; background-color: initial;&quot;&gt;Monitoring&lt;/span&gt;&lt;/div&gt;" style="text;html=1;align=center;verticalAlign=middle;whiteSpace=wrap;rounded=0;" parent="jZVaUwOg5UY3L9NAnvdq-71" vertex="1">
          <mxGeometry x="1117" y="82" width="190" height="30" as="geometry" />
        </mxCell>
        <mxCell id="Qnpoebuc5BkSsdDRbeIA-18" value="&lt;font style=&quot;font-size: 14px;&quot; face=&quot;Times New Roman&quot;&gt;Document&lt;/font&gt;&lt;div&gt;&lt;font size=&quot;3&quot; face=&quot;LqM_pRcODi-56d-U26VV&quot;&gt;Db&lt;/font&gt;&lt;/div&gt;" style="sketch=0;points=[[0,0,0],[0.25,0,0],[0.5,0,0],[0.75,0,0],[1,0,0],[0,1,0],[0.25,1,0],[0.5,1,0],[0.75,1,0],[1,1,0],[0,0.25,0],[0,0.5,0],[0,0.75,0],[1,0.25,0],[1,0.5,0],[1,0.75,0]];outlineConnect=0;fontColor=#232F3E;fillColor=#C925D1;strokeColor=#ffffff;dashed=0;verticalLabelPosition=bottom;verticalAlign=top;align=center;html=1;fontSize=12;fontStyle=0;aspect=fixed;shape=mxgraph.aws4.resourceIcon;resIcon=mxgraph.aws4.documentdb_with_mongodb_compatibility;" parent="jZVaUwOg5UY3L9NAnvdq-71" vertex="1">
          <mxGeometry x="1173" y="174" width="78" height="78" as="geometry" />
        </mxCell>
        <mxCell id="Qnpoebuc5BkSsdDRbeIA-20" value="&lt;font style=&quot;font-size: 14px;&quot; face=&quot;Times New Roman&quot;&gt;Hosted on EC2&lt;/font&gt;" style="sketch=0;outlineConnect=0;fontColor=#232F3E;gradientColor=none;fillColor=#C925D1;strokeColor=none;dashed=0;verticalLabelPosition=bottom;verticalAlign=top;align=center;html=1;fontSize=12;fontStyle=0;aspect=fixed;pointerEvents=1;shape=mxgraph.aws4.rds_postgresql_instance;" parent="jZVaUwOg5UY3L9NAnvdq-71" vertex="1">
          <mxGeometry x="1173" y="353.5" width="78" height="78" as="geometry" />
        </mxCell>
        <mxCell id="Qnpoebuc5BkSsdDRbeIA-23" value="" style="shape=image;verticalLabelPosition=bottom;labelBackgroundColor=default;verticalAlign=top;aspect=fixed;imageAspect=0;image=https://flowygo.com/wp-content/uploads/2021/12/ELK_stack.png;" parent="jZVaUwOg5UY3L9NAnvdq-71" vertex="1">
          <mxGeometry x="1153.5" y="536" width="132" height="132" as="geometry" />
        </mxCell>
        <mxCell id="ylPRggPQVk4RAqtWnenC-133" value="Notification-Api" style="shape=image;verticalLabelPosition=bottom;labelBackgroundColor=default;verticalAlign=top;aspect=fixed;imageAspect=0;image=https://pbs.twimg.com/profile_images/1235868806079057921/fTL08u_H_400x400.png;fontFamily=Times New Roman;fontSize=14;" parent="jZVaUwOg5UY3L9NAnvdq-71" vertex="1">
          <mxGeometry x="677" y="455" width="100" height="100" as="geometry" />
        </mxCell>
        <mxCell id="IMjDMDMF1OcJiBSf5i2Z-10" value="" style="outlineConnect=0;dashed=0;verticalLabelPosition=bottom;verticalAlign=top;align=center;html=1;shape=mxgraph.aws3.virtual_private_cloud;fillColor=#F58534;gradientColor=none;" parent="jZVaUwOg5UY3L9NAnvdq-71" vertex="1">
          <mxGeometry x="1337" y="679" width="50" height="36" as="geometry" />
        </mxCell>
        <mxCell id="IMjDMDMF1OcJiBSf5i2Z-11" value="&lt;font style=&quot;font-size: 14px;&quot; face=&quot;Times New Roman&quot;&gt;EKS&lt;/font&gt;" style="sketch=0;points=[[0,0,0],[0.25,0,0],[0.5,0,0],[0.75,0,0],[1,0,0],[0,1,0],[0.25,1,0],[0.5,1,0],[0.75,1,0],[1,1,0],[0,0.25,0],[0,0.5,0],[0,0.75,0],[1,0.25,0],[1,0.5,0],[1,0.75,0]];outlineConnect=0;fontColor=#232F3E;fillColor=#ED7100;strokeColor=#ffffff;dashed=0;verticalLabelPosition=bottom;verticalAlign=top;align=center;html=1;fontSize=12;fontStyle=0;aspect=fixed;shape=mxgraph.aws4.resourceIcon;resIcon=mxgraph.aws4.eks_anywhere;" parent="jZVaUwOg5UY3L9NAnvdq-71" vertex="1">
          <mxGeometry x="817" y="104" width="34" height="34" as="geometry" />
        </mxCell>
        <mxCell id="IMjDMDMF1OcJiBSf5i2Z-14" value="&lt;font style=&quot;font-size: 14px;&quot; face=&quot;Times New Roman&quot;&gt;Private&lt;/font&gt;" style="outlineConnect=0;dashed=0;verticalLabelPosition=bottom;verticalAlign=top;align=center;html=1;shape=mxgraph.aws3.virtual_private_cloud;fillColor=#F58534;gradientColor=none;" parent="jZVaUwOg5UY3L9NAnvdq-71" vertex="1">
          <mxGeometry x="787" y="252" width="50" height="36" as="geometry" />
        </mxCell>
        <mxCell id="IMjDMDMF1OcJiBSf5i2Z-16" value="3" style="rounded=1;whiteSpace=wrap;html=1;fillColor=#007CBD;strokeColor=none;fontColor=#FFFFFF;fontStyle=1;fontSize=22;labelBackgroundColor=none;" parent="jZVaUwOg5UY3L9NAnvdq-71" vertex="1">
          <mxGeometry x="319.94" y="464" width="40" height="38" as="geometry" />
        </mxCell>
        <mxCell id="IMjDMDMF1OcJiBSf5i2Z-17" value="4" style="rounded=1;whiteSpace=wrap;html=1;fillColor=#007CBD;strokeColor=none;fontColor=#FFFFFF;fontStyle=1;fontSize=22;labelBackgroundColor=none;" parent="jZVaUwOg5UY3L9NAnvdq-71" vertex="1">
          <mxGeometry x="530.56" y="70" width="40" height="38" as="geometry" />
        </mxCell>
        <mxCell id="IMjDMDMF1OcJiBSf5i2Z-19" value="5" style="rounded=1;whiteSpace=wrap;html=1;fillColor=#007CBD;strokeColor=none;fontColor=#FFFFFF;fontStyle=1;fontSize=22;labelBackgroundColor=none;" parent="jZVaUwOg5UY3L9NAnvdq-71" vertex="1">
          <mxGeometry x="1133" y="520" width="40" height="38" as="geometry" />
        </mxCell>
        <mxCell id="IMjDMDMF1OcJiBSf5i2Z-21" value="&lt;font style=&quot;font-size: 14px;&quot; face=&quot;Times New Roman&quot;&gt;SNS&lt;/font&gt;" style="outlineConnect=0;dashed=0;verticalLabelPosition=bottom;verticalAlign=top;align=center;html=1;shape=mxgraph.aws3.sns;fillColor=#D9A741;gradientColor=none;" parent="jZVaUwOg5UY3L9NAnvdq-71" vertex="1">
          <mxGeometry x="954.75" y="448.5" width="76.5" height="76.5" as="geometry" />
        </mxCell>
        <mxCell id="IMjDMDMF1OcJiBSf5i2Z-27" style="edgeStyle=orthogonalEdgeStyle;rounded=0;orthogonalLoop=1;jettySize=auto;html=1;" parent="jZVaUwOg5UY3L9NAnvdq-71" source="IMjDMDMF1OcJiBSf5i2Z-22" target="ylPRggPQVk4RAqtWnenC-133" edge="1">
          <mxGeometry relative="1" as="geometry" />
        </mxCell>
        <mxCell id="IMjDMDMF1OcJiBSf5i2Z-22" value="&lt;font style=&quot;font-size: 14px;&quot; face=&quot;Times New Roman&quot;&gt;SES For SMS&lt;/font&gt;" style="outlineConnect=0;dashed=0;verticalLabelPosition=bottom;verticalAlign=top;align=center;html=1;shape=mxgraph.aws3.ses;fillColor=#D9A741;gradientColor=none;" parent="jZVaUwOg5UY3L9NAnvdq-71" vertex="1">
          <mxGeometry x="954.75" y="575" width="79.5" height="93" as="geometry" />
        </mxCell>
        <mxCell id="IMjDMDMF1OcJiBSf5i2Z-29" style="edgeStyle=orthogonalEdgeStyle;rounded=0;orthogonalLoop=1;jettySize=auto;html=1;" parent="jZVaUwOg5UY3L9NAnvdq-71" source="IMjDMDMF1OcJiBSf5i2Z-21" edge="1">
          <mxGeometry relative="1" as="geometry">
            <mxPoint x="993" y="575" as="targetPoint" />
          </mxGeometry>
        </mxCell>
        <mxCell id="IMjDMDMF1OcJiBSf5i2Z-31" value="&lt;font style=&quot;font-size: 14px;&quot; face=&quot;Times New Roman&quot;&gt;EC2&lt;/font&gt;" style="outlineConnect=0;dashed=0;verticalLabelPosition=bottom;verticalAlign=top;align=center;html=1;shape=mxgraph.aws3.ec2;fillColor=#F58534;gradientColor=none;" parent="jZVaUwOg5UY3L9NAnvdq-71" vertex="1">
          <mxGeometry x="139.94" y="152.5" width="66.5" height="71.5" as="geometry" />
        </mxCell>
        <mxCell id="IMjDMDMF1OcJiBSf5i2Z-33" value="&lt;font style=&quot;font-size: 14px;&quot; face=&quot;Times New Roman&quot;&gt;S3&lt;/font&gt;" style="sketch=0;pointerEvents=1;shadow=0;dashed=0;html=1;strokeColor=none;fillColor=#DF8C42;labelPosition=center;verticalLabelPosition=bottom;verticalAlign=top;align=center;outlineConnect=0;shape=mxgraph.veeam2.aws_s3;" parent="jZVaUwOg5UY3L9NAnvdq-71" vertex="1">
          <mxGeometry x="938.25" y="133" width="83" height="84" as="geometry" />
        </mxCell>
        <mxCell id="s5X0wB2pv5vyMMiJbtkr-32" style="edgeStyle=orthogonalEdgeStyle;rounded=0;orthogonalLoop=1;jettySize=auto;html=1;" edge="1" parent="jZVaUwOg5UY3L9NAnvdq-71" source="cMik-zeGw30TggDrTdBn-2">
          <mxGeometry relative="1" as="geometry">
            <mxPoint x="157" y="375" as="targetPoint" />
          </mxGeometry>
        </mxCell>
        <mxCell id="cMik-zeGw30TggDrTdBn-2" value="&lt;font style=&quot;font-size: 14px;&quot; face=&quot;Times New Roman&quot;&gt;Route 53&lt;/font&gt;" style="outlineConnect=0;dashed=0;verticalLabelPosition=bottom;verticalAlign=top;align=center;html=1;shape=mxgraph.aws3.route_53;fillColor=#F58536;gradientColor=none;" parent="jZVaUwOg5UY3L9NAnvdq-71" vertex="1">
          <mxGeometry x="27" y="320.5" width="70.5" height="109" as="geometry" />
        </mxCell>
        <mxCell id="s5X0wB2pv5vyMMiJbtkr-8" value="Pet-Growth-Chart-Api" style="shape=image;verticalLabelPosition=bottom;labelBackgroundColor=default;verticalAlign=top;aspect=fixed;imageAspect=0;image=https://pbs.twimg.com/profile_images/1235868806079057921/fTL08u_H_400x400.png;fontFamily=Times New Roman;fontSize=14;" vertex="1" parent="jZVaUwOg5UY3L9NAnvdq-71">
          <mxGeometry x="677" y="293" width="100" height="100" as="geometry" />
        </mxCell>
        <mxCell id="s5X0wB2pv5vyMMiJbtkr-9" style="edgeStyle=orthogonalEdgeStyle;rounded=0;orthogonalLoop=1;jettySize=auto;html=1;entryX=0.5;entryY=0;entryDx=0;entryDy=0;entryPerimeter=0;exitX=0.5;exitY=0;exitDx=0;exitDy=0;" edge="1" parent="jZVaUwOg5UY3L9NAnvdq-71" source="ylPRggPQVk4RAqtWnenC-133" target="IMjDMDMF1OcJiBSf5i2Z-21">
          <mxGeometry relative="1" as="geometry" />
        </mxCell>
        <mxCell id="-QjtrjUzRDEMRZ5MF8oH-47" value="Pet App Architecture" style="text;html=1;resizable=0;points=[];autosize=1;align=left;verticalAlign=top;spacingTop=-4;fontSize=30;fontStyle=1;labelBackgroundColor=none;" parent="1" vertex="1">
          <mxGeometry x="36.5" y="26.5" width="300" height="40" as="geometry" />
        </mxCell>
        <mxCell id="SCVMTBWpLvtzJIhz15lM-1" value="" style="line;strokeWidth=2;html=1;fontSize=14;labelBackgroundColor=none;" parent="1" vertex="1">
          <mxGeometry x="30" y="70" width="560" height="10" as="geometry" />
        </mxCell>
        <mxCell id="s5X0wB2pv5vyMMiJbtkr-29" style="edgeStyle=orthogonalEdgeStyle;rounded=0;orthogonalLoop=1;jettySize=auto;html=1;entryX=0;entryY=0.5;entryDx=0;entryDy=0;exitX=1;exitY=0;exitDx=0;exitDy=0;" edge="1" parent="1" source="jZVaUwOg5UY3L9NAnvdq-62" target="ylPRggPQVk4RAqtWnenC-86">
          <mxGeometry relative="1" as="geometry">
            <Array as="points">
              <mxPoint x="-220" y="495" />
              <mxPoint x="-220" y="495" />
            </Array>
          </mxGeometry>
        </mxCell>
        <mxCell id="jZVaUwOg5UY3L9NAnvdq-59" value="Actors" style="swimlane;fontSize=14;align=center;swimlaneFillColor=#f4f4f4;fillColor=#f4f4f4;startSize=33;container=1;pointerEvents=0;collapsible=0;recursiveResize=0;" parent="1" vertex="1">
          <mxGeometry x="-470" y="318.5" width="210" height="177" as="geometry" />
        </mxCell>
        <mxCell id="jZVaUwOg5UY3L9NAnvdq-60" value="&lt;font style=&quot;font-size: 14px;&quot; face=&quot;Times New Roman&quot;&gt;User&lt;/font&gt;&lt;div&gt;&lt;font size=&quot;3&quot; style=&quot;&quot; face=&quot;Times New Roman&quot;&gt;(B2C)&lt;/font&gt;&lt;/div&gt;" style="outlineConnect=0;fontColor=#232F3E;gradientColor=none;fillColor=#232F3E;strokeColor=none;dashed=0;verticalLabelPosition=bottom;verticalAlign=top;align=center;html=1;fontSize=12;fontStyle=0;aspect=fixed;pointerEvents=1;shape=mxgraph.aws4.user;labelBackgroundColor=none;" parent="jZVaUwOg5UY3L9NAnvdq-59" vertex="1">
          <mxGeometry x="70" y="40" width="72" height="72" as="geometry" />
        </mxCell>
        <mxCell id="jZVaUwOg5UY3L9NAnvdq-62" value="Channels" style="swimlane;fontSize=14;align=center;swimlaneFillColor=#f4f4f4;fillColor=#f4f4f4;startSize=33;container=1;pointerEvents=0;collapsible=0;recursiveResize=0;" parent="1" vertex="1">
          <mxGeometry x="-470" y="495.5" width="210" height="218" as="geometry" />
        </mxCell>
        <mxCell id="jZVaUwOg5UY3L9NAnvdq-65" value="&lt;font style=&quot;font-size: 14px;&quot; face=&quot;Times New Roman&quot;&gt;Mobile&lt;/font&gt;" style="outlineConnect=0;fontColor=#232F3E;gradientColor=none;strokeColor=none;fillColor=#277116;dashed=0;verticalLabelPosition=bottom;verticalAlign=top;align=center;html=1;fontSize=12;fontStyle=0;shape=mxgraph.aws4.mobile_client;labelBackgroundColor=none;" parent="jZVaUwOg5UY3L9NAnvdq-62" vertex="1">
          <mxGeometry x="67.5" y="57.5" width="53" height="100" as="geometry" />
        </mxCell>
        <mxCell id="jZVaUwOg5UY3L9NAnvdq-101" value="1" style="rounded=1;whiteSpace=wrap;html=1;fillColor=#007CBD;strokeColor=none;fontColor=#FFFFFF;fontStyle=1;fontSize=22;labelBackgroundColor=none;" parent="jZVaUwOg5UY3L9NAnvdq-62" vertex="1">
          <mxGeometry x="150" y="88.5" width="40" height="38" as="geometry" />
        </mxCell>
        <mxCell id="jZVaUwOg5UY3L9NAnvdq-163" value="" style="group" parent="1" vertex="1" connectable="0">
          <mxGeometry x="252.50000000000006" y="743.5" width="21" height="26" as="geometry" />
        </mxCell>
        <mxCell id="jZVaUwOg5UY3L9NAnvdq-162" value="" style="rounded=0;whiteSpace=wrap;html=1;labelBackgroundColor=#ffffff;fontSize=14;align=center;strokeColor=none;" parent="jZVaUwOg5UY3L9NAnvdq-163" vertex="1">
          <mxGeometry width="21" height="26" as="geometry" />
        </mxCell>
        <mxCell id="jZVaUwOg5UY3L9NAnvdq-161" value="" style="outlineConnect=0;fontColor=#232F3E;gradientColor=none;fillColor=#B3B3B3;strokeColor=none;dashed=0;verticalLabelPosition=bottom;verticalAlign=top;align=center;html=1;fontSize=12;fontStyle=0;aspect=fixed;pointerEvents=1;shape=mxgraph.aws4.encrypted_data;labelBackgroundColor=#ffffff;" parent="jZVaUwOg5UY3L9NAnvdq-163" vertex="1">
          <mxGeometry width="21" height="26" as="geometry" />
        </mxCell>
        <mxCell id="jZVaUwOg5UY3L9NAnvdq-164" value="" style="group" parent="1" vertex="1" connectable="0">
          <mxGeometry x="253.00000000000006" y="667.5" width="21" height="26" as="geometry" />
        </mxCell>
        <mxCell id="jZVaUwOg5UY3L9NAnvdq-165" value="" style="rounded=0;whiteSpace=wrap;html=1;labelBackgroundColor=#ffffff;fontSize=14;align=center;strokeColor=none;" parent="jZVaUwOg5UY3L9NAnvdq-164" vertex="1">
          <mxGeometry width="21" height="26" as="geometry" />
        </mxCell>
        <mxCell id="jZVaUwOg5UY3L9NAnvdq-166" value="" style="outlineConnect=0;fontColor=#232F3E;gradientColor=none;fillColor=#B3B3B3;strokeColor=none;dashed=0;verticalLabelPosition=bottom;verticalAlign=top;align=center;html=1;fontSize=12;fontStyle=0;aspect=fixed;pointerEvents=1;shape=mxgraph.aws4.encrypted_data;labelBackgroundColor=#ffffff;" parent="jZVaUwOg5UY3L9NAnvdq-164" vertex="1">
          <mxGeometry width="21" height="26" as="geometry" />
        </mxCell>
        <mxCell id="jZVaUwOg5UY3L9NAnvdq-167" value="" style="group" parent="1" vertex="1" connectable="0">
          <mxGeometry x="253.00000000000006" y="579" width="21" height="26" as="geometry" />
        </mxCell>
        <mxCell id="jZVaUwOg5UY3L9NAnvdq-168" value="" style="rounded=0;whiteSpace=wrap;html=1;labelBackgroundColor=#ffffff;fontSize=14;align=center;strokeColor=none;" parent="jZVaUwOg5UY3L9NAnvdq-167" vertex="1">
          <mxGeometry width="21" height="26" as="geometry" />
        </mxCell>
        <mxCell id="jZVaUwOg5UY3L9NAnvdq-169" value="" style="outlineConnect=0;fontColor=#232F3E;gradientColor=none;fillColor=#B3B3B3;strokeColor=none;dashed=0;verticalLabelPosition=bottom;verticalAlign=top;align=center;html=1;fontSize=12;fontStyle=0;aspect=fixed;pointerEvents=1;shape=mxgraph.aws4.encrypted_data;labelBackgroundColor=#ffffff;" parent="jZVaUwOg5UY3L9NAnvdq-167" vertex="1">
          <mxGeometry width="21" height="26" as="geometry" />
        </mxCell>
        <mxCell id="jZVaUwOg5UY3L9NAnvdq-170" value="" style="group" parent="1" vertex="1" connectable="0">
          <mxGeometry x="253.00000000000006" y="439.5" width="21" height="26" as="geometry" />
        </mxCell>
        <mxCell id="jZVaUwOg5UY3L9NAnvdq-171" value="" style="rounded=0;whiteSpace=wrap;html=1;labelBackgroundColor=#ffffff;fontSize=14;align=center;strokeColor=none;" parent="jZVaUwOg5UY3L9NAnvdq-170" vertex="1">
          <mxGeometry width="21" height="26" as="geometry" />
        </mxCell>
        <mxCell id="jZVaUwOg5UY3L9NAnvdq-172" value="" style="outlineConnect=0;fontColor=#232F3E;gradientColor=none;fillColor=#B3B3B3;strokeColor=none;dashed=0;verticalLabelPosition=bottom;verticalAlign=top;align=center;html=1;fontSize=12;fontStyle=0;aspect=fixed;pointerEvents=1;shape=mxgraph.aws4.encrypted_data;labelBackgroundColor=#ffffff;" parent="jZVaUwOg5UY3L9NAnvdq-170" vertex="1">
          <mxGeometry width="21" height="26" as="geometry" />
        </mxCell>
        <mxCell id="jZVaUwOg5UY3L9NAnvdq-173" value="" style="group" parent="1" vertex="1" connectable="0">
          <mxGeometry x="252.50000000000006" y="404.5" width="21" height="26" as="geometry" />
        </mxCell>
        <mxCell id="jZVaUwOg5UY3L9NAnvdq-174" value="" style="rounded=0;whiteSpace=wrap;html=1;labelBackgroundColor=#ffffff;fontSize=14;align=center;strokeColor=none;" parent="jZVaUwOg5UY3L9NAnvdq-173" vertex="1">
          <mxGeometry width="21" height="26" as="geometry" />
        </mxCell>
        <mxCell id="jZVaUwOg5UY3L9NAnvdq-175" value="" style="outlineConnect=0;fontColor=#232F3E;gradientColor=none;fillColor=#B3B3B3;strokeColor=none;dashed=0;verticalLabelPosition=bottom;verticalAlign=top;align=center;html=1;fontSize=12;fontStyle=0;aspect=fixed;pointerEvents=1;shape=mxgraph.aws4.encrypted_data;labelBackgroundColor=#ffffff;" parent="jZVaUwOg5UY3L9NAnvdq-173" vertex="1">
          <mxGeometry width="21" height="26" as="geometry" />
        </mxCell>
        <mxCell id="jZVaUwOg5UY3L9NAnvdq-176" value="" style="group" parent="1" vertex="1" connectable="0">
          <mxGeometry x="253.00000000000006" y="369" width="21" height="26" as="geometry" />
        </mxCell>
        <mxCell id="jZVaUwOg5UY3L9NAnvdq-177" value="" style="rounded=0;whiteSpace=wrap;html=1;labelBackgroundColor=#ffffff;fontSize=14;align=center;strokeColor=none;" parent="jZVaUwOg5UY3L9NAnvdq-176" vertex="1">
          <mxGeometry width="21" height="26" as="geometry" />
        </mxCell>
        <mxCell id="jZVaUwOg5UY3L9NAnvdq-178" value="" style="outlineConnect=0;fontColor=#232F3E;gradientColor=none;fillColor=#B3B3B3;strokeColor=none;dashed=0;verticalLabelPosition=bottom;verticalAlign=top;align=center;html=1;fontSize=12;fontStyle=0;aspect=fixed;pointerEvents=1;shape=mxgraph.aws4.encrypted_data;labelBackgroundColor=#ffffff;" parent="jZVaUwOg5UY3L9NAnvdq-176" vertex="1">
          <mxGeometry width="21" height="26" as="geometry" />
        </mxCell>
        <mxCell id="cMik-zeGw30TggDrTdBn-8" value="&amp;nbsp;&amp;nbsp;" style="text;html=1;align=center;verticalAlign=middle;whiteSpace=wrap;rounded=0;" parent="1" vertex="1">
          <mxGeometry x="1670" y="-200" width="60" height="30" as="geometry" />
        </mxCell>
        <mxCell id="cMik-zeGw30TggDrTdBn-9" value="&amp;nbsp;&amp;nbsp;" style="text;html=1;align=center;verticalAlign=middle;whiteSpace=wrap;rounded=0;" parent="1" vertex="1">
          <mxGeometry x="1641" y="1100" width="60" height="30" as="geometry" />
        </mxCell>
        <mxCell id="cMik-zeGw30TggDrTdBn-10" value="&amp;nbsp;&amp;nbsp;" style="text;html=1;align=center;verticalAlign=middle;whiteSpace=wrap;rounded=0;" parent="1" vertex="1">
          <mxGeometry x="2740" y="628" width="60" height="30" as="geometry" />
        </mxCell>
        <mxCell id="cMik-zeGw30TggDrTdBn-11" value="&amp;nbsp;&amp;nbsp;" style="text;html=1;align=center;verticalAlign=middle;whiteSpace=wrap;rounded=0;" parent="1" vertex="1">
          <mxGeometry x="-460" y="713.5" width="60" height="30" as="geometry" />
        </mxCell>
        <mxCell id="tzuz4KldsAJs12SHbYPI-1" value="&amp;nbsp;&amp;nbsp;" style="text;html=1;align=center;verticalAlign=middle;whiteSpace=wrap;rounded=0;" parent="1" vertex="1">
          <mxGeometry x="487" y="1220" width="60" height="30" as="geometry" />
        </mxCell>
        <mxCell id="tzuz4KldsAJs12SHbYPI-2" value="&amp;nbsp;&amp;nbsp;" style="text;html=1;align=center;verticalAlign=middle;whiteSpace=wrap;rounded=0;" parent="1" vertex="1">
          <mxGeometry x="1670" y="1220" width="60" height="30" as="geometry" />
        </mxCell>
        <mxCell id="s5X0wB2pv5vyMMiJbtkr-3" value="Native App For Android/Ios Users" style="shape=image;verticalLabelPosition=bottom;labelBackgroundColor=default;verticalAlign=top;aspect=fixed;imageAspect=0;image=https://assets-global.website-files.com/635ff61792c1c6ebf4e1edad/6364138a12ac6843f1c23412_flutterflow_logo_black.png;rotation=-90;fontFamily=Times New Roman;fontSize=16;" vertex="1" parent="1">
          <mxGeometry x="-247" y="477.5" width="500" height="91" as="geometry" />
        </mxCell>
        <mxCell id="IMjDMDMF1OcJiBSf5i2Z-15" value="2" style="rounded=1;whiteSpace=wrap;html=1;fillColor=#007CBD;strokeColor=none;fontColor=#FFFFFF;fontStyle=1;fontSize=22;labelBackgroundColor=none;" parent="1" vertex="1">
          <mxGeometry x="121.07999999999993" y="225" width="40" height="38" as="geometry" />
        </mxCell>
        <mxCell id="ylPRggPQVk4RAqtWnenC-88" value="&lt;font style=&quot;font-size: 18px;&quot; face=&quot;Times New Roman&quot;&gt;Front End&lt;/font&gt;" style="text;html=1;align=center;verticalAlign=middle;whiteSpace=wrap;rounded=0;" parent="1" vertex="1">
          <mxGeometry x="-50" y="207" width="106" height="30" as="geometry" />
        </mxCell>
        <mxCell id="s5X0wB2pv5vyMMiJbtkr-30" style="edgeStyle=orthogonalEdgeStyle;rounded=0;orthogonalLoop=1;jettySize=auto;html=1;" edge="1" parent="1" source="ylPRggPQVk4RAqtWnenC-86">
          <mxGeometry relative="1" as="geometry">
            <mxPoint x="310" y="495" as="targetPoint" />
          </mxGeometry>
        </mxCell>
      </root>
    </mxGraphModel>
  </diagram>
</mxfile>
